<svg id="Слой_1" data-name="Слой 1" xmlns="http://www.w3.org/2000/svg" viewBox="0 0 461.06 75.99"><defs><style>.cls-1{fill:#216fff;}.cls-2{fill:#fff;}</style></defs><title>lo</title><circle id="Эллипс_1" data-name="Эллипс 1" class="cls-1" cx="454.56" cy="53.29" r="6.5"/><path class="cls-1" d="M19.94,24.34a3.3,3.3,0,1,0,3.33,3.3A3.3,3.3,0,0,0,19.94,24.34Zm50,26.43h-10v-3.3h7.53a3,3,0,0,0,.52,0c7-1.1,12-10.6,12-23.09S75,2.35,68,1.25a3,3,0,0,0-.52,0H3.27a3.3,3.3,0,0,0-1.5,6.25,70.38,70.38,0,0,1,7.88,4.71A30.74,30.74,0,0,0,6.61,26c0,12.25,5.73,21.48,13.33,21.48h20V67.29a10,10,0,0,0,19.39,3.3H69.94a9.91,9.91,0,1,0,.4-19.82ZM22.46,39.53a7.49,7.49,0,0,1-.82.67l-.29.18a6.54,6.54,0,0,1-.59.3,2.87,2.87,0,0,1-.82.18c-2.72,0-6.67-5.79-6.67-14.87A26.2,26.2,0,0,1,15,16.52a11.33,11.33,0,0,1,.83.9l.27.34a7.35,7.35,0,0,1,.86,1.35,3.31,3.31,0,0,0,3,1.92h6.24a28.48,28.48,0,0,1,.43,5C26.61,31.71,24.94,37.06,22.46,39.53ZM56.6,40.86H29.88a25.11,25.11,0,0,0,3.39-13.22V21h1.27L37,25.81a3.35,3.35,0,0,0,3,1.83H73.12c-.67,7.92-3.65,12.62-6,13.22ZM69.94,64h-10V57.38h10a3.31,3.31,0,0,1,0,6.61Z" transform="translate(0.06 -1.21)"/><path id="CCTVTECH" class="cls-2" d="M127.29,45.2A10.29,10.29,0,0,0,131.52,49a13.13,13.13,0,0,0,5.82,1.29,14.37,14.37,0,0,0,7.32-1.68,24,24,0,0,0,4.92-3.72V57.2a24.6,24.6,0,0,1-5.49,2.94,21.53,21.53,0,0,1-7.59,1.14,26.32,26.32,0,0,1-12.33-2.76,20.51,20.51,0,0,1-8.31-7.71,21.92,21.92,0,0,1-3-11.61,21.92,21.92,0,0,1,3-11.61,20.51,20.51,0,0,1,8.31-7.71,26.32,26.32,0,0,1,12.33-2.76,21.53,21.53,0,0,1,7.59,1.14,24.6,24.6,0,0,1,5.49,2.94V33.56a22.41,22.41,0,0,0-4.92-3.75,14.57,14.57,0,0,0-7.32-1.65,13.13,13.13,0,0,0-5.82,1.29,10.29,10.29,0,0,0-4.23,3.75,10.76,10.76,0,0,0-1.59,6A10.76,10.76,0,0,0,127.29,45.2Zm42,0A10.29,10.29,0,0,0,173.52,49a13.16,13.16,0,0,0,5.82,1.29,14.37,14.37,0,0,0,7.32-1.68,23.76,23.76,0,0,0,4.92-3.72V57.2a24.38,24.38,0,0,1-5.49,2.94,21.5,21.5,0,0,1-7.59,1.14,26.34,26.34,0,0,1-12.33-2.76,20.51,20.51,0,0,1-8.31-7.71,21.92,21.92,0,0,1-3-11.61,21.92,21.92,0,0,1,3-11.61,20.51,20.51,0,0,1,8.31-7.71,26.34,26.34,0,0,1,12.33-2.76,21.5,21.5,0,0,1,7.59,1.14,24.38,24.38,0,0,1,5.49,2.94V33.56a22.18,22.18,0,0,0-4.92-3.75,14.57,14.57,0,0,0-7.32-1.65,13.16,13.16,0,0,0-5.82,1.29,10.29,10.29,0,0,0-4.23,3.75,10.76,10.76,0,0,0-1.59,6,10.76,10.76,0,0,0,1.59,6Zm23.77-27h35.22V28.64H216.52V60.2h-11.7V28.64H193.06V18.2Zm68.8,0h13.68L252.68,63l-23-44.82h13.8L252.68,41Zm16.2,0h35.22V28.64H301.52V60.2h-11.7V28.64H278.06V18.2Zm50.36,32.52h18V60.2H317.26v-42h29.16v9.48h-18V33.8h16.8v9.12h-16.8Zm37.87-5.52A10.29,10.29,0,0,0,370.52,49a13.16,13.16,0,0,0,5.82,1.29,14.34,14.34,0,0,0,7.32-1.68,23.76,23.76,0,0,0,4.92-3.72V57.2a24.38,24.38,0,0,1-5.49,2.94,21.5,21.5,0,0,1-7.59,1.14,26.34,26.34,0,0,1-12.33-2.76,20.51,20.51,0,0,1-8.31-7.71,21.92,21.92,0,0,1-3-11.61,21.92,21.92,0,0,1,3-11.61,20.51,20.51,0,0,1,8.31-7.71,26.34,26.34,0,0,1,12.33-2.76,21.5,21.5,0,0,1,7.59,1.14,24.38,24.38,0,0,1,5.49,2.94V33.56a22.18,22.18,0,0,0-4.92-3.75,14.55,14.55,0,0,0-7.32-1.65,13.16,13.16,0,0,0-5.82,1.29,10.29,10.29,0,0,0-4.23,3.75,10.76,10.76,0,0,0-1.59,6,10.76,10.76,0,0,0,1.59,6Zm41.61-27V33.08h16.56V18.2H436.1v42H424.46V43.46H407.9V60.2H396.26v-42Z" transform="translate(0.06 -1.21)"/></svg>